<svg width="45" height="46" viewBox="0 0 45 46" fill="none" xmlns="http://www.w3.org/2000/svg">
<path d="M22.2316 0.785164C9.96213 0.774838 0.0103343 10.7129 8.03986e-06 22.9824C-0.0103182 35.2519 9.92777 45.2037 22.1972 45.214C34.4651 45.2037 44.4099 35.2674 44.4288 22.9996C44.4288 10.737 34.4942 0.795491 22.2316 0.785164ZM22.1972 41.5174C11.9704 41.5174 3.67953 33.2264 3.67953 22.9996C3.67953 12.7727 11.9704 4.48187 22.1972 4.48187C32.4206 4.49219 40.7046 12.7762 40.7149 22.9996C40.7149 33.2264 32.4241 41.5174 22.1972 41.5174Z" fill="white"/>
<path d="M28.1966 21.9165C29.6822 21.0792 30.4851 19.4028 30.2083 17.7212C29.8644 15.125 26.7696 14.1449 24.328 13.9386V10.0356H21.9209V13.9042H20.3047V10.0356H17.8976V13.9042H13.0488V16.3974H14.8542C15.6623 16.3974 16.0578 16.6381 16.0578 17.2914V28.0032C16.0578 28.8972 15.6107 29.1724 15.1293 29.1724H13.2895V31.7171H17.9663V35.6717H20.3906V31.7171H22.0068V35.6717H24.3624V31.7171H24.8782C29.83 31.7171 31.4806 29.2928 31.4806 25.9916C31.4411 24.0451 30.0914 22.3705 28.1966 21.9165ZM20.3046 16.5521H22.024C23.2275 16.5521 25.6003 16.7585 25.6003 18.7185C25.6828 19.9978 24.7561 21.1188 23.4854 21.2804H20.3046V16.5521ZM22.9696 28.9316V28.9144H20.3046V23.7562H23.3995C24.1217 23.7562 26.8382 23.997 26.8382 25.9227C26.8382 27.8484 25.5488 28.9316 22.9696 28.9316Z" fill="white"/>
</svg>
