<svg width="37" height="37" viewBox="0 0 37 37" fill="none" xmlns="http://www.w3.org/2000/svg">
<path d="M18.5 37C28.7173 37 37 28.7173 37 18.5C37 8.28273 28.7173 0 18.5 0C8.28273 0 0 8.28273 0 18.5C0 28.7173 8.28273 37 18.5 37Z" fill="#272EAE"/>
<path d="M16.6958 29V20.0547H13.5V16.5H16.6958V13.6992C16.6958 10.6562 18.6792 9 21.575 9C22.9625 9 24.1542 9.09766 24.5 9.14062V12.3203H22.4917C20.9167 12.3203 20.6125 13.0234 20.6125 14.0508V16.5H24.1667L23.6792 20.0547H20.6125V29" fill="white"/>
<mask id="mask0" style="mask-type:alpha" maskUnits="userSpaceOnUse" x="13" y="9" width="12" height="20">
<path d="M16.6958 29V20.0547H13.5V16.5H16.6958V13.6992C16.6958 10.6562 18.6792 9 21.575 9C22.9625 9 24.1542 9.09766 24.5 9.14062V12.3203H22.4917C20.9167 12.3203 20.6125 13.0234 20.6125 14.0508V16.5H24.1667L23.6792 20.0547H20.6125V29" fill="white"/>
</mask>
<g mask="url(#mask0)">
</g>
</svg>
