<svg width="36" height="37" viewBox="0 0 36 37" fill="none" xmlns="http://www.w3.org/2000/svg">
<g clip-path="url(#clip0)">
<path d="M0.183594 13.0822L15.5715 33.0947L8.59169 13.0822H0.183594Z" fill="url(#paint0_linear)"/>
<path d="M9.96338 13.0822L17.3998 34.4041L24.9823 13.0822H9.96338Z" fill="url(#paint1_linear)"/>
<path d="M19.0566 33.6115L34.8412 13.0822H26.3565L19.0566 33.6115Z" fill="url(#paint2_linear)"/>
<path d="M28.82 2.28821H18.8657L25.691 11.0886L28.82 2.28821Z" fill="url(#paint3_linear)"/>
<path d="M24.5309 11.733L17.5124 2.68433L10.4946 11.733H24.5309Z" fill="url(#paint4_linear)"/>
<path d="M16.1596 2.28821H6.19824L9.28857 11.148L16.1596 2.28821Z" fill="url(#paint5_linear)"/>
<path d="M5.12523 3.14221L0 11.7328H8.1209L5.12523 3.14221Z" fill="url(#paint6_linear)"/>
<path d="M35.0251 11.7329L29.8947 3.13354L26.8359 11.7329H35.0251Z" fill="url(#paint7_linear)"/>
</g>
<defs>
<linearGradient id="paint0_linear" x1="8.64695" y1="9.93203" x2="10.1143" y2="45.359" gradientUnits="userSpaceOnUse">
<stop stop-color="#FD749B"/>
<stop offset="1" stop-color="#281AC8"/>
</linearGradient>
<linearGradient id="paint1_linear" x1="18.2238" y1="9.72592" x2="19.9298" y2="47.4585" gradientUnits="userSpaceOnUse">
<stop stop-color="#FD749B"/>
<stop offset="1" stop-color="#281AC8"/>
</linearGradient>
<linearGradient id="paint2_linear" x1="27.7382" y1="9.85069" x2="29.2435" y2="46.1924" gradientUnits="userSpaceOnUse">
<stop stop-color="#FD749B"/>
<stop offset="1" stop-color="#281AC8"/>
</linearGradient>
<linearGradient id="paint3_linear" x1="24.3405" y1="0.902961" x2="24.7796" y2="16.4961" gradientUnits="userSpaceOnUse">
<stop stop-color="#FD749B"/>
<stop offset="1" stop-color="#281AC8"/>
</linearGradient>
<linearGradient id="paint4_linear" x1="18.2146" y1="1.26" x2="18.5439" y2="17.299" gradientUnits="userSpaceOnUse">
<stop stop-color="#FD749B"/>
<stop offset="1" stop-color="#281AC8"/>
</linearGradient>
<linearGradient id="paint5_linear" x1="11.677" y1="0.893617" x2="12.1216" y2="16.5918" gradientUnits="userSpaceOnUse">
<stop stop-color="#FD749B"/>
<stop offset="1" stop-color="#281AC8"/>
</linearGradient>
<linearGradient id="paint6_linear" x1="4.46649" y1="1.78999" x2="4.97913" y2="17.0062" gradientUnits="userSpaceOnUse">
<stop stop-color="#FD749B"/>
<stop offset="1" stop-color="#281AC8"/>
</linearGradient>
<linearGradient id="paint7_linear" x1="31.34" y1="1.77994" x2="31.8494" y2="17.0119" gradientUnits="userSpaceOnUse">
<stop stop-color="#FD749B"/>
<stop offset="1" stop-color="#281AC8"/>
</linearGradient>
<clipPath id="clip0">
<rect width="35.0253" height="36.6931" fill="white"/>
</clipPath>
</defs>
</svg>
