<svg width="32" height="33" viewBox="0 0 32 33" fill="none" xmlns="http://www.w3.org/2000/svg">
<g clip-path="url(#clip0)">
<path d="M19.4714 22.2559H12.8091C7.3344 22.2559 2.87354 26.7167 2.87354 32.1914H29.436C29.407 26.7457 24.9461 22.2559 19.4714 22.2559Z" fill="url(#paint0_linear)"/>
<path d="M17.328 17.7078C17.8494 17.7078 18.3419 17.8816 18.7184 18.2003H21.1227C22.3103 16.9547 23.0345 15.3036 23.0345 13.4497C23.0345 9.62613 19.935 6.55566 16.1404 6.55566C12.3458 6.55566 9.24634 9.62613 9.24634 13.4497C9.24634 16.0278 10.6657 18.2872 12.7803 19.4748C13.012 18.461 13.91 17.7078 14.9528 17.7078H17.328Z" fill="url(#paint1_linear)"/>
<path d="M5.94422 14.0293C6.03112 14.7534 6.37872 15.4197 6.87115 15.9121C7.24772 16.2887 7.74015 16.5783 8.29052 16.7521C8.26155 16.6363 8.26155 16.5204 8.26155 16.4335V10.814C8.26155 10.6981 8.26155 10.5822 8.29052 10.4664C7.74015 10.6112 7.27669 10.9009 6.87115 11.3064C6.84219 11.3354 6.78425 11.3933 6.75529 11.4223V11.1905C6.75529 10.6402 6.81322 10.0898 6.90012 9.5684C6.98702 9.01803 7.13185 8.49663 7.33462 8.0042C7.50842 7.4828 7.74015 6.99036 8.02982 6.5269C8.29052 6.06343 8.60915 5.59996 8.95675 5.19443C8.98572 5.16546 9.01469 5.10753 9.01469 5.07856C9.27539 5.10753 9.53609 5.02063 9.70989 4.84683C11.4769 3.07986 13.7942 2.21086 16.0826 2.21086C18.3709 2.21086 20.7172 3.07986 22.4552 4.84683C22.658 5.0496 22.9187 5.10753 23.1504 5.07856C23.1794 5.10753 23.1794 5.16546 23.2084 5.19443C23.556 5.59996 23.8746 6.06343 24.1353 6.5269C24.396 6.99036 24.6277 7.4828 24.8305 8.0042C25.0043 8.5256 25.1491 9.047 25.265 9.59736C25.3519 10.1188 25.4098 10.6691 25.4098 11.2195V11.4512C25.3809 11.3933 25.3229 11.3643 25.294 11.3354C24.9174 10.9588 24.425 10.6691 23.8746 10.4953C23.9036 10.6112 23.9036 10.7271 23.9036 10.8429V16.4335C23.9036 16.5494 23.9036 16.6652 23.8746 16.7521C24.0194 16.7232 24.1643 16.6652 24.3091 16.6073V18.4322C24.3091 18.635 24.2801 18.8377 24.2512 18.9826C24.2222 19.1274 24.1643 19.2143 24.1063 19.3012C24.0484 19.3591 23.9615 19.4171 23.8746 19.446C23.7587 19.475 23.6429 19.504 23.498 19.504H23.4691H18.1392C17.9654 19.2143 17.6757 19.0115 17.2992 19.0115H14.9239C14.4025 19.0115 13.997 19.446 13.997 19.9385C14.0259 20.4599 14.4315 20.8654 14.9529 20.8654H17.3281C17.6757 20.8654 17.9944 20.6626 18.1682 20.373H23.556H23.7587C23.9615 20.373 24.1353 20.315 24.3091 20.2571C24.5408 20.1702 24.7146 20.0543 24.8884 19.8805C25.0333 19.7067 25.1491 19.504 25.236 19.2433C25.294 19.0115 25.3519 18.7219 25.3519 18.4032V16.0859V15.999C25.3809 15.97 25.4098 15.9411 25.4388 15.9121C25.9312 15.4197 26.2788 14.7534 26.3657 14.0293C26.3947 14.0003 26.4237 14.0003 26.4237 13.9713C26.5106 13.8844 26.5685 13.7396 26.5685 13.6237V11.2195C26.5685 10.6112 26.5106 10.0029 26.4237 9.42356C26.2499 8.81526 26.105 8.23593 25.9023 7.6566C25.6995 7.07726 25.4388 6.5269 25.1202 6.0055C24.8305 5.4841 24.4829 4.99166 24.0774 4.5282C24.0484 4.47026 23.9905 4.4413 23.9325 4.41233C23.9905 4.15163 23.9036 3.833 23.7008 3.63023C21.6152 1.54463 18.8923 0.501831 16.1405 0.501831C13.3887 0.501831 10.6658 1.54463 8.55122 3.63023C8.34845 3.833 8.26155 4.15163 8.31949 4.41233C8.26155 4.4413 8.23259 4.47026 8.17465 4.5282C7.76912 4.99166 7.42152 5.4841 7.13185 6.0055C6.84219 6.5269 6.58149 7.07726 6.34976 7.6566C6.14699 8.23593 5.97319 8.81526 5.88629 9.42356C5.77042 10.0029 5.74146 10.6112 5.74146 11.2195V13.6237C5.74146 13.7686 5.79939 13.8844 5.88629 13.9713C5.91526 14.0003 5.94422 14.0003 5.94422 14.0293Z" fill="url(#paint2_linear)"/>
</g>
<defs>
<linearGradient id="paint0_linear" x1="17.4829" y1="20.6919" x2="17.6927" y2="38.3079" gradientUnits="userSpaceOnUse">
<stop stop-color="#FD749B"/>
<stop offset="1" stop-color="#281AC8"/>
</linearGradient>
<linearGradient id="paint1_linear" x1="16.8298" y1="4.5221" x2="17.5128" y2="27.4109" gradientUnits="userSpaceOnUse">
<stop stop-color="#FD749B"/>
<stop offset="1" stop-color="#281AC8"/>
</linearGradient>
<linearGradient id="paint2_linear" x1="17.1963" y1="-2.70354" x2="18.3197" y2="33.3717" gradientUnits="userSpaceOnUse">
<stop stop-color="#FD749B"/>
<stop offset="1" stop-color="#281AC8"/>
</linearGradient>
<clipPath id="clip0">
<rect width="31.6895" height="31.6895" fill="white" transform="translate(0.310547 0.501831)"/>
</clipPath>
</defs>
</svg>
