<svg width="15" height="11" viewBox="0 0 15 11" fill="none" xmlns="http://www.w3.org/2000/svg">
<path d="M0.256782 3.84489H11.279V5.38288C11.279 5.45232 11.3043 5.51231 11.355 5.56312C11.4058 5.6139 11.4659 5.63924 11.5353 5.63924C11.6101 5.63924 11.6715 5.61525 11.7194 5.56716L14.2828 3.00388C14.3307 2.95582 14.3547 2.89437 14.3547 2.81969C14.3547 2.74486 14.3307 2.68339 14.2826 2.63544L11.7275 0.0801288C11.6634 0.0266535 11.5992 0 11.5351 0C11.4604 0 11.3989 0.0240163 11.351 0.0720488C11.3029 0.120165 11.279 0.181496 11.279 0.256294V1.79429H0.256782C0.187371 1.79429 0.127303 1.81962 0.0765768 1.87037C0.0258511 1.92113 0.000488281 1.98117 0.000488281 2.05058V3.58857C0.000488281 3.65798 0.0258231 3.71805 0.0765768 3.76878C0.127331 3.8195 0.187371 3.84489 0.256782 3.84489Z" fill="url(#paint0_linear)"/>
<path d="M14.098 6.92105H3.07586V5.383C3.07586 5.31359 3.05047 5.25352 2.99977 5.2028C2.94902 5.15204 2.88892 5.12671 2.81954 5.12671C2.74471 5.12671 2.68336 5.15072 2.6353 5.19876L0.0720484 7.7619C0.0241003 7.8101 0 7.87137 0 7.94628C0 8.01561 0.0239881 8.07444 0.0720484 8.12234L2.62733 10.6857C2.69144 10.7391 2.75552 10.7657 2.81962 10.7657C2.88901 10.7657 2.9491 10.7404 2.99983 10.6897C3.05053 10.6389 3.07592 10.5789 3.07592 10.5094V8.97149H14.098C14.1675 8.97149 14.2274 8.94627 14.2783 8.89546C14.329 8.84465 14.3542 8.78466 14.3542 8.71514V7.1772C14.3542 7.10776 14.3289 7.04778 14.2783 6.99708C14.2274 6.94638 14.1675 6.92105 14.098 6.92105Z" fill="url(#paint1_linear)"/>
<defs>
<linearGradient id="paint0_linear" x1="7.89529" y1="-0.887657" x2="8.02039" y2="9.11069" gradientUnits="userSpaceOnUse">
<stop stop-color="#FD749B"/>
<stop offset="1" stop-color="#281AC8"/>
</linearGradient>
<linearGradient id="paint1_linear" x1="7.89484" y1="4.23909" x2="8.01992" y2="14.237" gradientUnits="userSpaceOnUse">
<stop stop-color="#FD749B"/>
<stop offset="1" stop-color="#281AC8"/>
</linearGradient>
</defs>
</svg>
