<svg width="37" height="37" viewBox="0 0 37 37" fill="none" xmlns="http://www.w3.org/2000/svg">
<path d="M18.5 37C28.7173 37 37 28.7173 37 18.5C37 8.28273 28.7173 0 18.5 0C8.28273 0 0 8.28273 0 18.5C0 28.7173 8.28273 37 18.5 37Z" fill="#1590D8"/>
<path d="M26.9442 14.9264C26.9569 15.104 26.9569 15.2817 26.9569 15.4594C26.9569 20.8781 22.8326 27.1218 15.2945 27.1218C12.9721 27.1218 10.8148 26.4492 9.00006 25.2817C9.33002 25.3198 9.64725 25.3325 9.9899 25.3325C11.9061 25.3325 13.6701 24.6853 15.0787 23.5812C13.2767 23.5431 11.7665 22.3629 11.2462 20.7386C11.5001 20.7766 11.7539 20.802 12.0204 20.802C12.3884 20.802 12.7564 20.7512 13.099 20.6624C11.2209 20.2817 9.81221 18.632 9.81221 16.6396V16.5888C10.3579 16.8934 10.9924 17.0838 11.665 17.1091C10.5609 16.3731 9.8376 15.1167 9.8376 13.6954C9.8376 12.934 10.0406 12.236 10.396 11.6269C12.4137 14.1142 15.4467 15.7385 18.8477 15.9162C18.7843 15.6117 18.7462 15.2944 18.7462 14.9772C18.7462 12.7183 20.5736 10.8782 22.8452 10.8782C24.0254 10.8782 25.0913 11.3731 25.8401 12.1726C26.7665 11.9949 27.6548 11.6523 28.4416 11.1827C28.137 12.1345 27.4898 12.934 26.6396 13.4416C27.4645 13.3528 28.264 13.1243 29 12.8071C28.4417 13.6193 27.7437 14.3426 26.9442 14.9264Z" fill="white"/>
<mask id="mask0" style="mask-type:alpha" maskUnits="userSpaceOnUse" x="9" y="10" width="20" height="18">
<path d="M26.9442 14.9264C26.9569 15.104 26.9569 15.2817 26.9569 15.4594C26.9569 20.8781 22.8326 27.1218 15.2945 27.1218C12.9721 27.1218 10.8148 26.4492 9.00006 25.2817C9.33002 25.3198 9.64725 25.3325 9.9899 25.3325C11.9061 25.3325 13.6701 24.6853 15.0787 23.5812C13.2767 23.5431 11.7665 22.3629 11.2462 20.7386C11.5001 20.7766 11.7539 20.802 12.0204 20.802C12.3884 20.802 12.7564 20.7512 13.099 20.6624C11.2209 20.2817 9.81221 18.632 9.81221 16.6396V16.5888C10.3579 16.8934 10.9924 17.0838 11.665 17.1091C10.5609 16.3731 9.8376 15.1167 9.8376 13.6954C9.8376 12.934 10.0406 12.236 10.396 11.6269C12.4137 14.1142 15.4467 15.7385 18.8477 15.9162C18.7843 15.6117 18.7462 15.2944 18.7462 14.9772C18.7462 12.7183 20.5736 10.8782 22.8452 10.8782C24.0254 10.8782 25.0913 11.3731 25.8401 12.1726C26.7665 11.9949 27.6548 11.6523 28.4416 11.1827C28.137 12.1345 27.4898 12.934 26.6396 13.4416C27.4645 13.3528 28.264 13.1243 29 12.8071C28.4417 13.6193 27.7437 14.3426 26.9442 14.9264Z" fill="white"/>
</mask>
<g mask="url(#mask0)">
</g>
</svg>
