<svg width="37" height="37" viewBox="0 0 37 37" fill="none" xmlns="http://www.w3.org/2000/svg">
<path d="M18.5 37C28.7173 37 37 28.7173 37 18.5C37 8.28273 28.7173 0 18.5 0C8.28273 0 0 8.28273 0 18.5C0 28.7173 8.28273 37 18.5 37Z" fill="#D0021B"/>
<path fill-rule="evenodd" clip-rule="evenodd" d="M25.4087 12.6538C26.2246 12.876 26.8671 13.5308 27.0852 14.3623C27.4815 15.8693 27.4815 19.0136 27.4815 19.0136C27.4815 19.0136 27.4815 22.1579 27.0852 23.665C26.8671 24.4964 26.2246 25.124 25.4087 25.3462C23.9298 25.75 18 25.75 18 25.75C18 25.75 12.0701 25.75 10.5913 25.3462C9.7754 25.124 9.13283 24.4964 8.91474 23.665C8.51849 22.1579 8.51849 19.0136 8.51849 19.0136C8.51849 19.0136 8.51849 15.8693 8.91474 14.3623C9.13283 13.5308 9.7754 12.8761 10.5913 12.6538C12.0701 12.25 18 12.25 18 12.25C18 12.25 23.9299 12.25 25.4087 12.6538ZM16.0606 16.1588V21.8684L21.0168 19.0137L16.0606 16.1588Z" fill="white"/>
<mask id="mask0" style="mask-type:alpha" maskUnits="userSpaceOnUse" x="8" y="12" width="20" height="14">
<path fill-rule="evenodd" clip-rule="evenodd" d="M25.4087 12.6538C26.2246 12.876 26.8671 13.5308 27.0852 14.3623C27.4815 15.8693 27.4815 19.0136 27.4815 19.0136C27.4815 19.0136 27.4815 22.1579 27.0852 23.665C26.8671 24.4964 26.2246 25.124 25.4087 25.3462C23.9298 25.75 18 25.75 18 25.75C18 25.75 12.0701 25.75 10.5913 25.3462C9.7754 25.124 9.13283 24.4964 8.91474 23.665C8.51849 22.1579 8.51849 19.0136 8.51849 19.0136C8.51849 19.0136 8.51849 15.8693 8.91474 14.3623C9.13283 13.5308 9.7754 12.8761 10.5913 12.6538C12.0701 12.25 18 12.25 18 12.25C18 12.25 23.9299 12.25 25.4087 12.6538ZM16.0606 16.1588V21.8684L21.0168 19.0137L16.0606 16.1588Z" fill="white"/>
</mask>
<g mask="url(#mask0)">
</g>
</svg>
