<svg width="27" height="27" viewBox="0 0 27 27" fill="none" xmlns="http://www.w3.org/2000/svg">
<g clip-path="url(#clip0)">
<path d="M25.7615 24.5394H1.22704C0.54918 24.5394 0 25.0886 0 25.767C0 26.4443 0.54918 26.9935 1.22704 26.9935H25.7609C26.4388 26.9935 26.9879 26.4443 26.9879 25.767C26.9874 25.0886 26.4382 24.5394 25.7615 24.5394Z" fill="url(#paint0_linear)"/>
<path d="M2.76024 21.3496C2.08238 21.3496 1.5332 21.8988 1.5332 22.5766C1.5332 23.2545 2.08238 23.8042 2.76024 23.8042H24.2277C24.9055 23.8042 25.4547 23.2545 25.4547 22.5766C25.4547 21.8988 24.9055 21.3496 24.2277 21.3496H23.9215V10.3085H24.2277C24.5672 10.3085 24.8406 10.0339 24.8406 9.69559C24.8406 9.35723 24.566 9.08264 24.2277 9.08264H2.76024C2.42131 9.08264 2.1473 9.35723 2.1473 9.69559C2.1473 10.0339 2.42189 10.3085 2.76024 10.3085H3.067V21.349H2.76024V21.3496ZM21.4674 10.3085V21.349H17.7874V10.3085H21.4674ZM15.3334 10.3085V21.349H11.6534V10.3085H15.3334ZM5.51993 10.3085H9.19989V21.349H5.51993V10.3085Z" fill="url(#paint1_linear)"/>
<path d="M1.22706 7.97926H25.7609C25.7649 7.97926 25.7695 7.97926 25.773 7.97926C26.4514 7.97926 27 7.43008 27 6.75223C27 6.21339 26.6531 5.75669 26.1711 5.59125L13.9984 0.113814C13.6784 -0.0298 13.3125 -0.0298 12.9919 0.113814L0.723838 5.63376C0.195913 5.87158 -0.0941875 6.44489 0.0275972 7.01016C0.148807 7.57542 0.648584 7.97926 1.22706 7.97926Z" fill="url(#paint2_linear)"/>
</g>
<defs>
<linearGradient id="paint0_linear" x1="14.8434" y1="24.1531" x2="14.856" y2="28.5049" gradientUnits="userSpaceOnUse">
<stop stop-color="#FD749B"/>
<stop offset="1" stop-color="#281AC8"/>
</linearGradient>
<linearGradient id="paint1_linear" x1="14.69" y1="6.76536" x2="15.2015" y2="32.8607" gradientUnits="userSpaceOnUse">
<stop stop-color="#FD749B"/>
<stop offset="1" stop-color="#281AC8"/>
</linearGradient>
<linearGradient id="paint2_linear" x1="14.85" y1="-1.24893" x2="14.983" y2="12.8884" gradientUnits="userSpaceOnUse">
<stop stop-color="#FD749B"/>
<stop offset="1" stop-color="#281AC8"/>
</linearGradient>
<clipPath id="clip0">
<rect width="27" height="27" fill="white"/>
</clipPath>
</defs>
</svg>
