<svg width="32" height="33" viewBox="0 0 32 33" fill="none" xmlns="http://www.w3.org/2000/svg">
<g clip-path="url(#clip0)">
<path d="M13.3079 18.2034C13.3079 19.7392 14.5245 20.9886 16.0198 20.9886C17.5151 20.9886 18.7317 19.7392 18.7317 18.2034C18.7317 16.6677 17.5151 15.4182 16.0198 15.4182C14.5245 15.4182 13.3079 16.6677 13.3079 18.2034Z" fill="url(#paint0_linear)"/>
<path d="M16.0198 22.8455C13.0289 22.8455 10.5959 25.3442 10.5959 28.4159V32.1914H21.4436V28.4159C21.4436 25.3442 19.0107 22.8455 16.0198 22.8455Z" fill="url(#paint1_linear)"/>
<path d="M8.78809 20.0602C8.78809 18.5245 7.5715 17.275 6.07618 17.275C4.58085 17.275 3.36426 18.5245 3.36426 20.0602C3.36426 21.596 4.58085 22.8454 6.07618 22.8454C7.5715 22.8454 8.78809 21.596 8.78809 20.0602Z" fill="url(#paint2_linear)"/>
<path d="M28.6755 20.0602C28.6755 18.5245 27.4589 17.275 25.9636 17.275C24.4683 17.275 23.2517 18.5245 23.2517 20.0602C23.2517 21.596 24.4683 22.8454 25.9636 22.8454C27.4589 22.8454 28.6755 21.596 28.6755 20.0602Z" fill="url(#paint3_linear)"/>
<path d="M5.17217 0.501831L3.79691 3.83176L0.592041 4.29596L2.90353 6.55096L2.37197 9.84777L5.17217 8.34467L7.97237 9.84777L7.44081 6.55096L9.69203 4.29596L6.58109 3.83176L5.17217 0.501831Z" fill="url(#paint4_linear)"/>
<path d="M17.4288 3.83176L16.0199 0.501831L14.6446 3.83176L11.5 4.29596L13.7512 6.55096L13.2197 9.84777L16.0199 8.34467L18.8201 9.84777L18.2885 6.55096L20.5397 4.29596L17.4288 3.83176Z" fill="url(#paint5_linear)"/>
<path d="M26.8675 0.501831L25.4923 3.83176L22.3477 4.29596L24.5989 6.55096L24.0673 9.84777L26.8675 8.34467L29.6677 9.84777L29.1362 6.55096L31.4476 4.29596L28.2764 3.83176L26.8675 0.501831Z" fill="url(#paint6_linear)"/>
<path d="M25.9638 24.7023C24.7623 24.7023 23.6627 25.1164 22.7639 25.7953C23.0664 26.6132 23.2519 27.4904 23.2519 28.4159V32.1914H31.4479V30.2727C31.4479 27.1961 28.9594 24.7023 25.9638 24.7023Z" fill="url(#paint7_linear)"/>
<path d="M0.592041 30.2727V32.1914H8.78806V28.4159C8.78806 27.4904 8.97356 26.6132 9.27606 25.7953C8.37727 25.1164 7.27767 24.7023 6.07614 24.7023C3.08055 24.7023 0.592041 27.1961 0.592041 30.2727Z" fill="url(#paint8_linear)"/>
</g>
<defs>
<linearGradient id="paint0_linear" x1="16.291" y1="14.5414" x2="16.6137" y2="24.4087" gradientUnits="userSpaceOnUse">
<stop stop-color="#FD749B"/>
<stop offset="1" stop-color="#281AC8"/>
</linearGradient>
<linearGradient id="paint1_linear" x1="16.5622" y1="21.3743" x2="17.0166" y2="37.9348" gradientUnits="userSpaceOnUse">
<stop stop-color="#FD749B"/>
<stop offset="1" stop-color="#281AC8"/>
</linearGradient>
<linearGradient id="paint2_linear" x1="6.34737" y1="16.3982" x2="6.67012" y2="26.2655" gradientUnits="userSpaceOnUse">
<stop stop-color="#FD749B"/>
<stop offset="1" stop-color="#281AC8"/>
</linearGradient>
<linearGradient id="paint3_linear" x1="26.2348" y1="16.3982" x2="26.5576" y2="26.2655" gradientUnits="userSpaceOnUse">
<stop stop-color="#FD749B"/>
<stop offset="1" stop-color="#281AC8"/>
</linearGradient>
<linearGradient id="paint4_linear" x1="5.59704" y1="-0.969288" x2="6.13854" y2="15.5859" gradientUnits="userSpaceOnUse">
<stop stop-color="#FD749B"/>
<stop offset="1" stop-color="#281AC8"/>
</linearGradient>
<linearGradient id="paint5_linear" x1="16.4718" y1="-0.969288" x2="17.017" y2="15.5857" gradientUnits="userSpaceOnUse">
<stop stop-color="#FD749B"/>
<stop offset="1" stop-color="#281AC8"/>
</linearGradient>
<linearGradient id="paint6_linear" x1="27.3527" y1="-0.969288" x2="27.8942" y2="15.5859" gradientUnits="userSpaceOnUse">
<stop stop-color="#FD749B"/>
<stop offset="1" stop-color="#281AC8"/>
</linearGradient>
<linearGradient id="paint7_linear" x1="27.5401" y1="23.5234" x2="27.9046" y2="36.7937" gradientUnits="userSpaceOnUse">
<stop stop-color="#FD749B"/>
<stop offset="1" stop-color="#281AC8"/>
</linearGradient>
<linearGradient id="paint8_linear" x1="5.36825" y1="23.5234" x2="5.73273" y2="36.7937" gradientUnits="userSpaceOnUse">
<stop stop-color="#FD749B"/>
<stop offset="1" stop-color="#281AC8"/>
</linearGradient>
<clipPath id="clip0">
<rect width="30.8556" height="31.6895" fill="white" transform="translate(0.592041 0.501831)"/>
</clipPath>
</defs>
</svg>
