<svg width="33" height="33" viewBox="0 0 33 33" fill="none" xmlns="http://www.w3.org/2000/svg">
<g clip-path="url(#clip0)">
<path d="M16.2289 7.18445C13.1328 7.18445 10.6138 9.70323 10.6138 12.7994C10.6138 15.8957 13.1328 18.4145 16.2289 18.4145C19.3251 18.4145 21.8438 15.8957 21.8438 12.7994C21.8438 9.70323 19.3251 7.18445 16.2289 7.18445Z" fill="url(#paint0_linear)"/>
<path d="M27.9253 16.5997L26.2225 12.7995L27.9253 8.99937L24.3142 6.9257L23.4581 2.8504L19.3175 3.2955L16.2296 0.501831L13.1415 3.2955L9.00115 2.85064L8.14503 6.92594L4.53369 8.99937L6.23649 12.7995L4.53369 16.5997L8.14503 18.6734L8.60875 20.8812L4.75395 29.0722L8.77702 29.1249L11.3819 32.1913L15.1709 24.1396L16.2296 25.0972L17.2881 24.1396L21.0774 32.1913L23.682 29.1249L27.7051 29.0722L23.8503 20.8812L24.3142 18.6734L27.9253 16.5997ZM16.2296 20.2712C12.1096 20.2712 8.75792 16.9196 8.75792 12.7995C8.75792 8.67951 12.1096 5.32783 16.2296 5.32783C20.3494 5.32783 23.7013 8.67975 23.7013 12.7995C23.7013 16.9196 20.3494 20.2712 16.2296 20.2712Z" fill="url(#paint1_linear)"/>
</g>
<defs>
<linearGradient id="paint0_linear" x1="16.7903" y1="5.41675" x2="17.4239" y2="25.3106" gradientUnits="userSpaceOnUse">
<stop stop-color="#FD749B"/>
<stop offset="1" stop-color="#281AC8"/>
</linearGradient>
<linearGradient id="paint1_linear" x1="17.3991" y1="-4.48633" x2="19.8191" y2="51.6034" gradientUnits="userSpaceOnUse">
<stop stop-color="#FD749B"/>
<stop offset="1" stop-color="#281AC8"/>
</linearGradient>
<clipPath id="clip0">
<rect width="31.6895" height="31.6895" fill="white" transform="translate(0.38623 0.501831)"/>
</clipPath>
</defs>
</svg>
