<svg width="15" height="6" viewBox="0 0 15 6" fill="none" xmlns="http://www.w3.org/2000/svg">
<path d="M0.256294 3.84489H11.2785V5.38289C11.2785 5.45232 11.3038 5.51231 11.3545 5.56312C11.4053 5.6139 11.4654 5.63924 11.5348 5.63924C11.6096 5.63924 11.671 5.61525 11.7189 5.56716L14.2823 3.00388C14.3302 2.95582 14.3542 2.89437 14.3542 2.81969C14.3542 2.74486 14.3302 2.68339 14.2821 2.63544L11.727 0.0801288C11.6629 0.0266535 11.5987 0 11.5346 0C11.4599 0 11.3984 0.0240163 11.3505 0.0720488C11.3025 0.120165 11.2785 0.181496 11.2785 0.256294V1.79429H0.256294C0.186883 1.79429 0.126814 1.81962 0.0760885 1.87037C0.0253628 1.92113 0 1.98117 0 2.05058V3.58857C0 3.65798 0.0253348 3.71805 0.0760885 3.76878C0.126842 3.8195 0.186883 3.84489 0.256294 3.84489Z" fill="url(#paint0_linear)"/>
<defs>
<linearGradient id="paint0_linear" x1="7.89481" y1="-0.887657" x2="8.01991" y2="9.11069" gradientUnits="userSpaceOnUse">
<stop stop-color="#FD749B"/>
<stop offset="1" stop-color="#281AC8"/>
</linearGradient>
</defs>
</svg>
